<svg width="112" height="19" fill="none" xmlns="http://www.w3.org/2000/svg"><path d="M0-.00022294C.336 1.55763 1.456 3.2571 2.912 3.68197h4.592l.224.14162V18.4107h2.8V3.82359l.224-.14162h4.592c1.568-.56649 2.576-2.12434 2.912-3.68219294H0zM87.136 18.4107c1.456-.7081 2.24-2.1243 2.464-3.6822H76.944V-.141846h-2.8V18.2691h12.992v.1416zM52.976 3.68197h10.08c1.456-.56649 2.8-1.98272 3.024-3.68219294H50.176V10.9047h12.992v3.8238H52.976c-1.568.5665-2.912 1.9828-3.584 3.6822H66.08V7.36416H52.976V3.68197zm42.672 3.68219V18.4107h2.912v-7.3643h10.192v7.3643h2.912V7.36416H95.648zM28.224 3.68197h10.864C40.544 3.2571 41.776 1.55763 42-.00022294H25.2C25.648 1.69925 26.768 3.2571 28.224 3.68197zm0 7.36443h10.864c1.456-.4249 2.688-2.12439 2.912-3.68224H25.2c.448 1.55785 1.568 3.25734 3.024 3.68224zm0 7.3643h10.864c1.456-.4248 2.688-2.1243 2.912-3.6822H25.2c.448 1.6995 1.568 3.399 3.024 3.6822zm70-14.72873h10.864c1.456-.42487 2.688-2.12434 2.912-3.68219294H95.2C95.536 1.69925 96.656 3.39872 98.224 3.68197z" fill="#000"/></svg>